
        <svg xmlns="http://www.w3.org/2000/svg" xmlns:xlink="http://www.w3.org/1999/xlink" version="1.1" width="3240" height="1672.9371298344215" viewBox="0 0 3240 1672.9371298344215">
			
			<g transform="scale(12.000000000000002) translate(10, 10)">
				<defs id="SvgjsDefs2733"><linearGradient id="SvgjsLinearGradient2738"><stop id="SvgjsStop2739" stop-color="#b88746" offset="0"/><stop id="SvgjsStop2740" stop-color="#fdf5a6" offset="1"/></linearGradient></defs><g id="SvgjsG2734" featureKey="symbolFeature-0" transform="matrix(0.8744139472934266,0,0,0.8744139472934266,81.70135380429183,-2.320694445999905)" fill="#fff"><path xmlns="http://www.w3.org/2000/svg" d="M60.559,33.825c1.049-0.004,2.035-0.064,2.988-0.031c0.897,0.056,2.116,0.116,2.085,0.442  c0.144,0.226,0.235,0.689,0.31,1.142c0.078,0.453,0.112,0.921,0.156,1.401c0.065,0.96,0.06,1.969,0.2,3.011  c0.475-0.934,0.809-1.908,0.969-2.954c0.09-0.521,0.119-1.059,0.09-1.604c-0.046-0.534-0.073-1.098-0.43-1.752  c-0.179-0.314-0.503-0.644-0.896-0.802c-0.383-0.149-0.706-0.166-0.968-0.174c-0.546-0.018-1.088,0.02-1.611,0.129  C62.403,32.828,61.422,33.229,60.559,33.825z"/><path xmlns="http://www.w3.org/2000/svg" d="M52.465,72.049c0.329,0.032,0.712,0.292,1.009,0.547c0.616,0.536,1.155,1.242,1.915,1.625  c-0.723-0.453-1.168-1.173-1.76-1.791c-0.317-0.297-0.633-0.593-1.138-0.693c-0.541-0.037-0.918,0.327-1.216,0.622  c-1.157,1.299-1.978,2.761-2.962,4.114c-0.449,0.641-1.028,1.182-1.725,1.333c-0.688,0.171-1.447,0.012-2.155-0.319  c-1.419-0.669-2.716-1.752-4.012-2.816c-2.583-2.138-5.214-4.21-7.819-6.314c-0.637-0.513-1.338-1.075-2.005-1.572  c-0.666-0.506-1.321-1.007-1.939-1.537c-1.201-1.043-2.431-2.263-2.742-3.555c-0.059-0.158-0.059-0.31-0.058-0.46  c-0.026-0.154,0.012-0.297,0.05-0.44c0.011-0.148,0.081-0.286,0.16-0.422l0.102-0.21l0.169-0.258l1.395-2.1  c0.925-1.404,1.855-2.806,2.754-4.229c1.792-2.85,3.568-5.718,5.166-8.69c1.567-2.975,3.038-6.038,4.549-8.996  c0.76-1.433,1.762-2.835,3.272-3.452c0.73-0.31,1.578-0.264,2.342,0.031c0.768,0.289,1.475,0.77,2.073,1.357  c-0.545-0.638-1.21-1.19-1.986-1.564c-0.774-0.367-1.711-0.49-2.565-0.195c-1.701,0.566-2.883,2.024-3.77,3.459  c-1.68,2.951-3.228,5.891-4.913,8.791c-1.729,2.863-3.501,5.701-5.357,8.49l-2.784,4.186l-1.407,2.086l-0.177,0.267l-0.186,0.35  c-0.13,0.231-0.241,0.471-0.285,0.746c-0.069,0.266-0.121,0.532-0.096,0.802c-0.002,0.272,0.014,0.539,0.091,0.783  c0.244,1.01,0.794,1.802,1.365,2.496c0.589,0.681,1.231,1.28,1.89,1.842c0.661,0.559,1.344,1.073,2.018,1.578  c0.684,0.5,1.291,0.992,1.976,1.514c2.676,2.046,5.326,4.124,8.024,6.136c1.337,1.002,2.682,2.062,4.338,2.768  c0.816,0.34,1.8,0.537,2.747,0.26c0.958-0.264,1.653-0.999,2.116-1.745c0.894-1.427,1.641-2.966,2.64-4.248  C51.822,72.327,52.132,72.038,52.465,72.049z"/><path xmlns="http://www.w3.org/2000/svg" d="M36.937,54.593c0.918-1.264,1.796-2.558,2.641-3.875c0.848-1.314,1.654-2.659,2.383-4.052  c-2.141,2.3-4.132,4.693-6.101,7.103c-0.994,1.197-1.941,2.43-2.919,3.638l-2.857,3.686l-0.006,0.008  c-0.051,0.066-0.09,0.142-0.114,0.227c-0.1,0.357,0.107,0.727,0.464,0.828c0.565,0.159,1.241,0.471,1.83,0.811  c0.6,0.354,1.171,0.769,1.723,1.219c0.53,0.473,1.06,0.963,1.533,1.514c0.487,0.54,0.929,1.125,1.372,1.723  c-0.263-0.693-0.568-1.38-0.956-2.025c-0.379-0.652-0.833-1.262-1.335-1.839c-0.51-0.569-1.079-1.094-1.71-1.549  c-0.386-0.277-0.775-0.526-1.202-0.745c0.827-0.963,1.635-1.942,2.431-2.93C35.072,57.1,36.035,55.87,36.937,54.593z"/><path xmlns="http://www.w3.org/2000/svg" d="M53.176,51.682c-1.322-0.102-2.607-0.105-3.818-0.278c-1.205-0.179-2.335-0.512-3.259-1.161  c-0.943-0.621-1.688-1.544-2.298-2.589c-0.603-1.055-1.056-2.232-1.472-3.488c-0.202,1.311-0.057,2.683,0.413,3.975  c0.459,1.293,1.314,2.512,2.516,3.342c1.214,0.818,2.679,1.144,4.039,1.089C50.667,52.532,51.957,52.194,53.176,51.682z"/><path xmlns="http://www.w3.org/2000/svg" d="M54.996,68.454c0.133-0.969,0.063-1.971-0.197-2.923c-0.52-1.934-1.718-3.534-2.93-4.946  c-1.254-1.397-2.507-2.676-3.656-4.071c-1.146-1.393-2.176-2.869-3.035-4.528c0.266,1.857,1.073,3.629,2.091,5.212  c1.002,1.602,2.287,3.009,3.47,4.371c1.195,1.352,2.295,2.742,2.949,4.327c0.625,1.588,0.856,3.412,0.139,5.151  C54.464,70.355,54.841,69.418,54.996,68.454z"/><path xmlns="http://www.w3.org/2000/svg" d="M74.944,74.277c-0.564-1.683-1.419-3.28-2.612-4.602c-1.172-1.321-2.697-2.391-4.387-2.783  c1.428,0.965,2.554,2.166,3.47,3.503c0.905,1.342,1.619,2.809,2.104,4.345c0.51,1.526,0.786,3.14,0.938,4.781  c0.145,1.645,0.145,3.319,0.139,5.041c0.62-1.607,0.959-3.323,1.031-5.067C75.711,77.749,75.483,75.975,74.944,74.277z"/><path xmlns="http://www.w3.org/2000/svg" d="M51.722,87.01c-0.862-1.835-1.246-3.847-1.301-5.915c-0.04-2.068,0.246-4.159,0.782-6.249  c-1.113,1.855-1.765,4.007-1.948,6.214c-0.194,2.202,0.167,4.515,1.101,6.569c0.944,2.042,2.286,3.812,3.746,5.405  c1.453,1.598,3.045,3.087,4.827,4.312c-1.355-1.682-2.663-3.349-3.923-5.056C53.76,90.584,52.552,88.869,51.722,87.01z"/><path xmlns="http://www.w3.org/2000/svg" d="M67.856,86.485c-0.881-1.404-1.887-2.758-3.127-3.899c-1.223-1.139-2.697-2.099-4.323-2.459  c1.365,0.93,2.476,2.046,3.476,3.26c0.987,1.222,1.879,2.523,2.697,3.883c0.841,1.341,1.587,2.748,2.357,4.162  c0.762,1.418,1.517,2.86,2.412,4.25c-0.315-1.622-0.77-3.192-1.345-4.732C69.436,89.407,68.717,87.909,67.856,86.485z"/><path xmlns="http://www.w3.org/2000/svg" d="M65.476,52.316c0.141-0.065,0.272-0.153,0.409-0.23c-0.407,0.823-0.829,1.627-1.292,2.401  c-0.755,1.295-1.729,2.487-2.436,4.026c-0.327,0.767-0.585,1.618-0.602,2.516c-0.003,0.885,0.211,1.817,0.699,2.553  c0.95,1.494,2.455,2.314,3.949,2.779c-1.207-1.006-2.362-2.068-2.918-3.333c-0.554-1.242-0.362-2.617,0.242-3.908  c0.557-1.31,1.507-2.603,2.107-4.109c0.459-1.09,0.796-2.235,0.957-3.399c0.601-0.471,1.113-1.047,1.428-1.711  c0.33-0.482,0.423-1.065,0.612-1.584c0.102-0.551,0.157-1.107,0.166-1.652c-0.331,0.46-0.567,0.931-0.846,1.369l-0.445,0.626  c-0.075,0.102-0.14,0.208-0.207,0.312l-0.25,0.273c-0.609,0.775-1.374,1.315-2.195,1.705c-1.674,0.78-3.722,0.719-5.887,0.487  c0.865,0.7,1.932,1.117,3.054,1.302C63.144,52.931,64.375,52.82,65.476,52.316z"/><path xmlns="http://www.w3.org/2000/svg" d="M56.118,49.594c0.577,0.504,1.16,0.89,1.72,1.316l0.022,0.017c0.218,0.166,0.527,0.176,0.758,0.004  c0.563-0.418,0.995-0.943,1.385-1.449c0.393-0.508,0.72-1.032,1.076-1.515c0.359-0.478,0.726-0.94,1.191-1.299  c0.456-0.368,1.007-0.637,1.614-0.798c-0.624-0.032-1.279,0.091-1.873,0.38c-0.59,0.292-1.117,0.71-1.568,1.163  c-0.457,0.45-0.873,0.917-1.283,1.351c-0.034,0.036-0.07,0.064-0.104,0.099c0.028-0.083,0.058-0.165,0.082-0.249  c0.176-0.639,0.259-1.311,0.201-1.991c-0.046-0.676-0.223-1.368-0.581-1.979c-0.34-0.601-0.877-1.177-1.58-1.331  c0.283,0.626,0.388,1.185,0.489,1.743c0.082,0.56,0.143,1.11,0.176,1.681c0.051,0.567,0.064,1.149,0.13,1.754  c0.02,0.295,0.044,0.595,0.082,0.902c-0.861-0.74-1.617-1.462-2.385-2.346c-0.916-1.037-2.073-2.148-3.422-2.819  c-1.346-0.7-2.892-1.039-4.383-0.913c-1.495,0.105-2.898,0.669-4.068,1.475c1.364-0.417,2.739-0.647,4.073-0.545  c1.333,0.094,2.593,0.521,3.713,1.186c0.548,0.353,1.089,0.721,1.572,1.17c0.488,0.431,0.929,0.94,1.423,1.456  C55.064,48.57,55.564,49.098,56.118,49.594z"/><path xmlns="http://www.w3.org/2000/svg" d="M64.922,42.531c0.444,0.526,0.874,1.069,1.262,1.67c0.411,0.593,0.751,1.24,1.221,1.925c0.144-0.8,0.098-1.636-0.159-2.415  c-0.216-0.797-0.655-1.528-1.191-2.16c-0.539-0.633-1.211-1.152-1.957-1.498c-0.735-0.354-1.552-0.569-2.376-0.489  C62.981,40.577,64.028,41.467,64.922,42.531z"/><path xmlns="http://www.w3.org/2000/svg" d="M56.942,27.691c-0.355-0.379-0.664-0.611-0.962-0.855c-0.294-0.242-0.585-0.439-0.885-0.637  c-0.303-0.192-0.616-0.376-0.972-0.541c-0.35-0.175-0.725-0.332-1.214-0.467c-0.003,0.514,0.18,0.949,0.424,1.325  c0.12,0.192,0.263,0.366,0.423,0.523c-0.159,0.625-0.201,1.291-0.146,1.937c0.068,0.905,0.279,1.78,0.52,2.61  c0.223,0.838,0.512,1.628,0.691,2.417c0.068,0.257,0.108,0.51,0.154,0.765c-0.201-0.15-0.408-0.292-0.628-0.418  c-0.715-0.431-1.591-0.772-2.425-0.638c0.78,0.278,1.348,0.788,1.891,1.327c0.266,0.274,0.518,0.563,0.765,0.855  c0.238,0.293,0.48,0.611,0.685,0.895c0.098,0.134,0.248,0.233,0.425,0.261c0.355,0.057,0.689-0.185,0.746-0.54l0.011-0.066  c0.153-0.952,0.03-1.912-0.173-2.797c-0.232-0.882-0.522-1.714-0.857-2.503c-0.515-1.272-1.028-2.468-1.275-3.799  c0.049,0.036,0.092,0.081,0.143,0.114C55.032,27.937,56.046,28.164,56.942,27.691z"/><path xmlns="http://www.w3.org/2000/svg" d="M62.274,12.24c0.65,1.316,0.9,2.813,0.915,4.327c0.041,1.519-0.163,3.063-0.447,4.599c-0.3,1.538-0.702,3.062-1.21,4.615  c1.058-1.253,1.81-2.753,2.342-4.315c0.538-1.565,0.831-3.227,0.815-4.924c-0.045-1.681-0.404-3.454-1.419-4.91  c-1.001-1.468-2.677-2.351-4.301-2.465C60.44,9.898,61.611,10.928,62.274,12.24z"/><path xmlns="http://www.w3.org/2000/svg" d="M43.713,27.157c1.034,0.305,2.28-0.038,3.024-0.899c0.383-0.417,0.633-0.98,0.709-1.542c0.081-0.565,0.013-1.118-0.115-1.63  c-0.284-1.052-0.735-1.845-1.076-2.723c-0.362-0.865-0.688-1.735-0.963-2.614c-0.566-1.748-0.919-3.55-0.778-5.319  c0.11-1.771,0.651-3.507,1.73-4.893c1.048-1.417,2.522-2.531,4.158-3.242c1.634-0.709,3.516-0.942,5.203-0.34  c0.867,0.248,1.599,0.81,2.27,1.439c0.29,0.355,0.571,0.727,0.847,1.106l0.668,1.252c-0.426-1.849-1.65-3.623-3.508-4.473  c-0.906-0.472-1.937-0.58-2.943-0.625c-0.5,0.025-1.009,0.063-1.503,0.153c-0.482,0.133-0.994,0.195-1.453,0.4  c-1.898,0.667-3.586,1.887-4.865,3.47c-0.331,0.387-0.572,0.847-0.856,1.272c-0.224,0.46-0.443,0.934-0.631,1.409  c-0.342,0.954-0.537,1.963-0.614,2.972c-0.134,2.032,0.284,4.028,0.926,5.869c0.327,0.922,0.702,1.818,1.106,2.691  c0.375,0.879,0.898,1.739,1.153,2.513c0.266,0.803,0.248,1.615-0.224,2.228c-0.458,0.631-1.285,0.96-2.105,0.809  c-0.812-0.115-1.596-0.716-1.822-1.556c-0.111-0.409-0.056-0.877,0.154-1.268c0.196-0.396,0.603-0.712,1.09-0.718  c-0.478-0.074-0.988,0.184-1.281,0.597c-0.294,0.412-0.426,0.944-0.353,1.466C41.814,26.008,42.676,26.875,43.713,27.157z"/><path xmlns="http://www.w3.org/2000/svg" d="M54.956,7.814c-1.076,0.042-2.134,0.373-3.078,0.905c-0.955,0.52-1.787,1.268-2.451,2.16  c-0.66,0.907-1.073,1.992-1.251,3.071c-0.354,2.216,0.264,4.387,1.143,6.234c0.22,0.469,0.448,0.927,0.694,1.375  c0.252,0.459,0.511,0.861,0.657,1.284c0.163,0.423,0.216,0.873,0.083,1.3c-0.137,0.425-0.47,0.823-0.928,1.047  c0.506-0.072,1.006-0.38,1.303-0.868c0.305-0.491,0.343-1.112,0.256-1.658c-0.092-0.561-0.318-1.055-0.477-1.514  c-0.167-0.472-0.352-0.934-0.503-1.403c-0.629-1.86-1.065-3.756-0.749-5.557c0.246-1.828,1.314-3.382,2.841-4.484  c1.508-1.072,3.487-1.7,5.439-1.035C57.122,8.041,56.025,7.779,54.956,7.814z"/><path xmlns="http://www.w3.org/2000/svg" d="M47.461,25.894c-0.219,0.558-0.398,1.139-0.523,1.747c-0.117,0.609-0.19,1.248-0.103,1.931  c0.079,0.66,0.388,1.472,1.076,1.906c0.156,0.126,0.338,0.178,0.511,0.249c0.161,0.072,0.382,0.12,0.578,0.115  c0.398-0.001,0.785-0.13,1.081-0.385c0.621-0.512,0.548-1.559-0.079-1.786c0.36,0.499,0.015,1.08-0.338,1.179  c-0.392,0.155-0.755-0.022-1.039-0.299c-0.499-0.509-0.423-1.587-0.216-2.616c0.101-0.522,0.243-1.05,0.396-1.583l0.24-0.803  c0.091-0.275,0.175-0.641,0.204-0.953c0.117-1.289-0.192-2.492-0.773-3.537c-0.018,1.182-0.082,2.328-0.372,3.313  c-0.085,0.253-0.169,0.439-0.29,0.701C47.686,25.34,47.572,25.616,47.461,25.894z"/></g><g id="SvgjsG2735" featureKey="nameFeature-0" transform="matrix(0.5507189867631141,0,0,0.5507189867631141,-0.594776463687639,97.14035189259232)" fill="#fff"><path d="M13.44 40 l-5.36 0 l0 -23.2 l-7 0 l0 -5.28 l19.36 0 l0 5.28 l-7 0 l0 23.2 z M48.29600000000001 40 l-5.76 0 l-2.92 -7.68 l-9.44 0 l-2.96 7.68 l-5.72 0 l10.96 -28.48 l4.84 0 z M32.256 27.04 l5.28 0 l-2.64 -6.92 z M78.632 40 l-5.32 0 l0 -19.04 l-7.44 10.16 l-7.4 -10.16 l0 19.04 l-5.32 0 l0 -28.48 l5 0 l7.72 10.6 l7.72 -10.6 l5.04 0 l0 28.48 z M111.208 40 l-5.32 0 l0 -19.04 l-7.44 10.16 l-7.4 -10.16 l0 19.04 l-5.32 0 l0 -28.48 l5 0 l7.72 10.6 l7.72 -10.6 l5.04 0 l0 28.48 z M131.984 40 l-5.4 0 l0 -14.08 l-10.28 -14.4 l6.56 0 l6.44 9 l6.44 -9 l6.52 0 l-10.28 14.4 l0 14.08 z M149.04000000000002 17.96 l-3.36 0 l0 -6.48 l3.36 0 l0 6.48 z M165.05600000000004 40.24 c-0.92 0 -1.88 -0.12 -2.88 -0.32 c-2.96 -0.6 -5.84 -2.04 -8.36 -4.24 l-0.76 -0.68 l3.52 -4 l0.76 0.68 c1.84 1.6 3.88 2.68 5.88 3.08 l0.04 0 c0.6 0.12 1.2 0.2 1.8 0.2 c1 0 1.92 -0.2 2.68 -0.56 c0.96 -0.4 2.08 -1.28 2.08 -2.92 c0 -0.88 -0.44 -1.56 -1.36 -2.12 c-1.12 -0.68 -2.64 -1.04 -3.72 -1.24 c-0.48 -0.08 -4.56 -0.92 -6.44 -1.96 c-1.24 -0.76 -2.2 -1.72 -2.88 -2.84 c-0.68 -1.16 -1 -2.44 -1 -3.84 c0 -1.52 0.48 -3.04 1.4 -4.44 c0.88 -1.16 2.08 -2.12 3.52 -2.8 s3.04 -1.04 4.76 -1.04 c0.68 0 1.4 0.08 2.12 0.16 c2.64 0.48 5.24 1.68 7.52 3.6 l0.76 0.64 l-3.4 4.12 l-0.76 -0.64 c-2.6 -2.12 -4.84 -2.6 -6.28 -2.6 c-0.92 0 -1.76 0.2 -2.48 0.52 c-1.12 0.52 -1.84 1.48 -1.84 2.44 c0 0.88 0.32 1.44 1.08 1.96 s1.92 0.92 3.76 1.32 c0.24 0.04 0.56 0.12 0.88 0.2 c1.68 0.32 3.92 0.8 5.48 1.72 c1.36 0.72 2.4 1.72 3.12 2.88 s1.08 2.52 1.08 3.96 c0 1.8 -0.48 3.4 -1.44 4.76 c-0.84 1.16 -2.08 2.16 -3.72 2.96 c-1.4 0.72 -2.96 1.04 -4.92 1.04 z M204.00800000000004 40.44 c-2 0 -3.96 -0.4 -5.8 -1.16 c-1.76 -0.76 -3.36 -1.84 -4.72 -3.2 c-1.4 -1.36 -2.48 -2.96 -3.2 -4.76 c-0.8 -1.84 -1.2 -3.76 -1.2 -5.8 c0 -8.2 6.72 -14.88 14.92 -14.88 c2.32 0 4.64 0.56 6.68 1.6 c2.04 1 3.88 2.56 5.24 4.4 l0.64 0.8 l-4.28 3.16 l-0.6 -0.8 c-1.8 -2.44 -4.6 -3.84 -7.68 -3.84 c-5.28 0 -9.6 4.28 -9.6 9.56 c0 5.32 4.32 9.64 9.6 9.64 c3.04 0 5.84 -1.4 7.68 -3.84 l0.6 -0.76 l4.24 3.12 l-0.64 0.8 c-1.4 1.88 -3.16 3.36 -5.24 4.4 c-2.04 1.04 -4.32 1.56 -6.64 1.56 z M235.14400000000006 40.4 c-8.2 0 -14.88 -6.64 -14.88 -14.84 c0 -8.24 6.68 -14.92 14.88 -14.92 c8.24 0 14.92 6.68 14.92 14.92 c0 8.2 -6.68 14.84 -14.92 14.84 z M235.14400000000006 15.96 c-5.24 0 -9.52 4.28 -9.52 9.6 c0 5.28 4.28 9.56 9.52 9.56 s9.52 -4.28 9.52 -9.56 c0 -5.32 -4.28 -9.6 -9.52 -9.6 z M275.1600000000001 40 l-19.88 0 l0 -28.48 l5.36 0 l0 23.24 l14.52 0 l0 5.24 z M299.93600000000004 40 l-19.88 0 l0 -28.48 l5.36 0 l0 23.24 l14.52 0 l0 5.24 z M323.83200000000005 40 l-18.4 0 l0 -28.48 l18.76 0 l0 5.2 l-13.4 0 l0 4.2 l11.68 0 l0 5.32 l-11.68 0 l0 8.48 l13.04 0 l0 5.28 z M342.60800000000006 40.44 c-2 0 -3.96 -0.4 -5.8 -1.16 c-1.76 -0.76 -3.36 -1.84 -4.72 -3.2 c-1.4 -1.36 -2.48 -2.96 -3.2 -4.76 c-0.8 -1.84 -1.2 -3.76 -1.2 -5.8 c0 -8.2 6.72 -14.88 14.92 -14.88 c2.32 0 4.64 0.56 6.68 1.6 c2.04 1 3.88 2.56 5.24 4.4 l0.64 0.8 l-4.28 3.16 l-0.6 -0.8 c-1.8 -2.44 -4.6 -3.84 -7.68 -3.84 c-5.28 0 -9.6 4.28 -9.6 9.56 c0 5.32 4.32 9.64 9.6 9.64 c3.04 0 5.84 -1.4 7.68 -3.84 l0.6 -0.76 l4.24 3.12 l-0.64 0.8 c-1.4 1.88 -3.16 3.36 -5.24 4.4 c-2.04 1.04 -4.32 1.56 -6.64 1.56 z M370.944 40 l-5.36 0 l0 -23.2 l-7 0 l0 -5.28 l19.36 0 l0 5.28 l-7 0 l0 23.2 z M390.44 40 l-5.36 0 l0 -28.48 l5.36 0 l0 28.48 z M411.536 40.4 c-8.2 0 -14.88 -6.64 -14.88 -14.84 c0 -8.24 6.68 -14.92 14.88 -14.92 c8.24 0 14.92 6.68 14.92 14.92 c0 8.2 -6.68 14.84 -14.92 14.84 z M411.536 15.96 c-5.24 0 -9.52 4.28 -9.52 9.6 c0 5.28 4.28 9.56 9.52 9.56 s9.52 -4.28 9.52 -9.56 c0 -5.32 -4.28 -9.6 -9.52 -9.6 z M455.03200000000004 40 l-5.16 0 l-12.64 -18.68 l0 18.68 l-5.36 0 l0 -28.48 l5.2 0 l12.6 18.64 l0 -18.64 l5.36 0 l0 28.48 z"/></g>
			</g>
		</svg>
	